{"title":"Battleship Potemkin 1925 BRRip XviD MP3 Idiocracy","uid":11943855,"size":687178077,"categoryP":"video","categoryS":"movies","magnet":"?xt=urn:btih:d065965959e02158b5992ace80531dcd8f6d47af&amp;dn=Battleship+Potemkin+1925+BRRip+XviD+MP3+Idiocracy&amp;tr=udp%3A%2F%2Ftracker.openbittorrent.com%3A80&amp;tr=udp%3A%2F%2Fopen.demonii.com%3A1337&amp;tr=udp%3A%2F%2Ftracker.coppersurfer.tk%3A6969&amp;tr=udp%3A%2F%2Fexodus.desync.com%3A6969","seeders":0,"leechers":0,"uploader":"Satafakap","files":6,"time":1432023453,"description":"Synopsis / Plot\n\nA dramatized account of a great Russian naval mutiny and a resulting street demonstration which brought on a police massacre.\n\nDirector: Sergei M. Eisenstein (as S.M. Eisenstein)\nWriter: Nina Agadzhanova (script by) (as N.F. Agadzhanova-Shutko)\nStars: Aleksandr Antonov, Vladimir Barsky, Grigori Aleksandrov \n &lt;a href=&quot;\nhttp://www.imdb.com/title/tt0015648/&quot; rel=&quot;nofollow&quot; target=&quot;_NEW&quot;&gt;\nhttp://www.imdb.com/title/tt0015648/&lt;/a&gt;\n\nGeneral\n\nComplete name       : Battleship.Potemkin.1925.BRRip.XviD.MP3-Idiocracy.avi\nFormat              : AVI\nFormat/Info         : Audio Video Interleave\nFile size           : 651 MiB\nDuration            : 1h 11mn\nOverall bit rate    : 1 271 Kbps\nWriting application : VirtualDubMod 1.5.10.3 | www.virtualdub-fr.org\nWriting library     : VirtualDubMod build 2550/release\nSource              : Battleship Potemkin.1925.BRRip.720p.H264-BeLLBoY (Kingdom-Release) - Thanks!\nSample              : Yes\n\nVideo\n\nID                                       : 0\nFormat                                   : MPEG-4 Visual\nFormat profile                           : Advanced Simple@L5\nFormat settings, BVOP                    : 2\nFormat settings, QPel                    : No\nFormat settings, GMC                     : No warppoints\nFormat settings, Matrix                  : Default (H.263)\nCodec ID                                 : XVID\nCodec ID/Hint                            : XviD\nDuration                                 : 1h 11mn\nBit rate                                 : 1 136 Kbps\nWidth                                    : 640 pixels\nHeight                                   : 504 pixels\nDisplay aspect ratio                     : 1.270\nFrame rate                               : 17.200 fps\nOriginal frame rate                      : 17.201 fps\nColor space                              : YUV\nChroma subsampling                       : 4:2:0\nBit depth                                : 8 bits\nScan type                                : Progressive\nCompression mode                         : Lossy\nBits/(Pixel*Frame)                       : 0.205\nStream size                              : 582 MiB (89%)\nWriting library                          : XviD 1.2.1 (UTC 2008-12-04)\n\nAudio\n\nID                                       : 1\nFormat                                   : MPEG Audio\nFormat version                           : Version 1\nFormat profile                           : Layer 3\nCodec ID                                 : 55\nCodec ID/Hint                            : MP3\nDuration                                 : 1h 11mn\nBit rate mode                            : Constant\nBit rate                                 : 128 Kbps\nChannel(s)                               : 2 channels\nSampling rate                            : 48.0 KHz\nCompression mode                         : Lossy\nStream size                              : 65.6 MiB (10%)\nAlignment                                : Aligned on interleaves\nInterleave, duration                     : 58 ms (1.00 video frame)\nInterleave, preload duration             : 504 ms\nWriting library                          : LAME3.99r\nEncoding settings                        : -m s -V 4 -q 0 -lowpass 17 -b 128\n\nScreenshots:\n &lt;a href=&quot;\nhttp://i.imgur.com/kKfSJDt.jpg&quot; rel=&quot;nofollow&quot; target=&quot;_NEW&quot;&gt;\nhttp://i.imgur.com/kKfSJDt.jpg&lt;/a&gt;\n &lt;a href=&quot;\nhttp://i.imgur.com/kktBK9P.jpg&quot; rel=&quot;nofollow&quot; target=&quot;_NEW&quot;&gt;\nhttp://i.imgur.com/kktBK9P.jpg&lt;/a&gt;\n &lt;a href=&quot;\nhttp://i.imgur.com/NZIjcWr.jpg&quot; rel=&quot;nofollow&quot; target=&quot;_NEW&quot;&gt;\nhttp://i.imgur.com/NZIjcWr.jpg&lt;/a&gt;\n &lt;a href=&quot;\nhttp://i.imgur.com/l10ckb0.jpg&quot; rel=&quot;nofollow&quot; target=&quot;_NEW&quot;&gt;\nhttp://i.imgur.com/l10ckb0.jpg&lt;/a&gt;\n &lt;a href=&quot;\nhttp://i.imgur.com/vIa950s.jpg&quot; rel=&quot;nofollow&quot; target=&quot;_NEW&quot;&gt;\nhttp://i.imgur.com/vIa950s.jpg&lt;/a&gt;","torrent":{"xt":"urn:btih:d065965959e02158b5992ace80531dcd8f6d47af","amp;dn":"Battleship+Potemkin+1925+BRRip+XviD+MP3+Idiocracy","amp;tr":["udp%3A%2F%2Ftracker.openbittorrent.com%3A80","udp%3A%2F%2Fopen.demonii.com%3A1337","udp%3A%2F%2Ftracker.coppersurfer.tk%3A6969","udp%3A%2F%2Fexodus.desync.com%3A6969"],"infoHash":"d065965959e02158b5992ace80531dcd8f6d47af","infoHashBuffer":{"type":"Buffer","data":[208,101,150,89,89,224,33,88,181,153,42,206,128,83,29,205,143,109,71,175]},"announce":[],"urlList":[]}}